<svg xmlns="http://www.w3.org/2000/svg" viewBox="0 0 5.7024941 3.4240806">
  <g>
    <path fill="#8ec07c"
      d="m48.829061 76.108016-.989087 3.42408h.687297l.321944-1.237133h-.001l.349333-1.350306h.0031l.218075-.836641zm1.374593 0-.989087 3.42408h.687297l.321944-1.237133h-.001l.349333-1.350306h.0031l.218074-.836641z"
      transform="translate(-47.839976 -76.108018)" />
    <path fill="#fabd2f"
      d="m51.578247 76.108016-.989087 3.42408h2.06189l.306958-1.179773v-.000516l.01499-.05684h-.001l.137977-.532784h-.635104l-.170015.589628v.000516l-.170533.589628h-.704349l.168465-.646988h-.001l.349261-1.35031h.0031l.06408-.246496h1.374593l.153996-.590145h-1.711007Z"
      transform="translate(-47.839976 -76.108018)" />
  </g>
</svg>
